<mxfile host="app.diagrams.net" modified="2023-08-10T23:15:02.626Z" agent="Mozilla/5.0 (Windows NT 10.0; Win64; x64) AppleWebKit/537.36 (KHTML, like Gecko) Chrome/115.0.0.0 Safari/537.36" version="21.6.8" etag="zrOY5yqJVQl5tvU66_Z9" type="github">
  <diagram name="Page-1" id="YaJeBMIT66V9MmM-v7yE">
    <mxGraphModel>
      <root>
        <mxCell id="0" />
        <mxCell id="1" parent="0" />
      </root>
    </mxGraphModel>
  </diagram>
</mxfile>
